<svg width="322" height="135" viewBox="0 0 322 135" fill="none" xmlns="http://www.w3.org/2000/svg">
<path d="M90.382 119.228C91.4087 119.228 92.3093 119.429 93.084 119.83C93.868 120.231 94.47 120.805 94.89 121.552C95.3193 122.289 95.534 123.148 95.534 124.128C95.534 125.108 95.3193 125.967 94.89 126.704C94.47 127.432 93.868 127.997 93.084 128.398C92.3093 128.799 91.4087 129 90.382 129H86.966V119.228H90.382ZM90.312 127.334C91.3387 127.334 92.132 127.054 92.692 126.494C93.252 125.934 93.532 125.145 93.532 124.128C93.532 123.111 93.252 122.317 92.692 121.748C92.132 121.169 91.3387 120.88 90.312 120.88H88.926V127.334H90.312ZM101.537 129.098C100.622 129.098 99.7825 128.883 99.0172 128.454C98.2518 128.025 97.6452 127.432 97.1972 126.676C96.7492 125.911 96.5252 125.047 96.5252 124.086C96.5252 123.134 96.7492 122.28 97.1972 121.524C97.6452 120.759 98.2518 120.161 99.0172 119.732C99.7825 119.303 100.622 119.088 101.537 119.088C102.461 119.088 103.301 119.303 104.057 119.732C104.822 120.161 105.424 120.759 105.863 121.524C106.311 122.28 106.535 123.134 106.535 124.086C106.535 125.047 106.311 125.911 105.863 126.676C105.424 127.432 104.822 128.025 104.057 128.454C103.292 128.883 102.452 129.098 101.537 129.098ZM101.537 127.348C102.125 127.348 102.643 127.217 103.091 126.956C103.539 126.685 103.889 126.303 104.141 125.808C104.393 125.313 104.519 124.739 104.519 124.086C104.519 123.433 104.393 122.863 104.141 122.378C103.889 121.883 103.539 121.505 103.091 121.244C102.643 120.983 102.125 120.852 101.537 120.852C100.949 120.852 100.426 120.983 99.9692 121.244C99.5212 121.505 99.1712 121.883 98.9192 122.378C98.6672 122.863 98.5412 123.433 98.5412 124.086C98.5412 124.739 98.6672 125.313 98.9192 125.808C99.1712 126.303 99.5212 126.685 99.9692 126.956C100.426 127.217 100.949 127.348 101.537 127.348ZM109.925 119.228V125.276C109.925 125.939 110.098 126.447 110.443 126.802C110.789 127.147 111.274 127.32 111.899 127.32C112.534 127.32 113.024 127.147 113.369 126.802C113.715 126.447 113.887 125.939 113.887 125.276V119.228H115.861V125.262C115.861 126.093 115.679 126.797 115.315 127.376C114.961 127.945 114.48 128.375 113.873 128.664C113.276 128.953 112.609 129.098 111.871 129.098C111.143 129.098 110.481 128.953 109.883 128.664C109.295 128.375 108.829 127.945 108.483 127.376C108.138 126.797 107.965 126.093 107.965 125.262V119.228H109.925ZM124.405 119.228V120.81H121.801V129H119.841V120.81H117.237V119.228H124.405ZM130.371 129.098C129.456 129.098 128.616 128.883 127.851 128.454C127.086 128.025 126.479 127.432 126.031 126.676C125.583 125.911 125.359 125.047 125.359 124.086C125.359 123.134 125.583 122.28 126.031 121.524C126.479 120.759 127.086 120.161 127.851 119.732C128.616 119.303 129.456 119.088 130.371 119.088C131.295 119.088 132.135 119.303 132.891 119.732C133.656 120.161 134.258 120.759 134.697 121.524C135.145 122.28 135.369 123.134 135.369 124.086C135.369 125.047 135.145 125.911 134.697 126.676C134.258 127.432 133.656 128.025 132.891 128.454C132.126 128.883 131.286 129.098 130.371 129.098ZM130.371 127.348C130.959 127.348 131.477 127.217 131.925 126.956C132.373 126.685 132.723 126.303 132.975 125.808C133.227 125.313 133.353 124.739 133.353 124.086C133.353 123.433 133.227 122.863 132.975 122.378C132.723 121.883 132.373 121.505 131.925 121.244C131.477 120.983 130.959 120.852 130.371 120.852C129.783 120.852 129.26 120.983 128.803 121.244C128.355 121.505 128.005 121.883 127.753 122.378C127.501 122.863 127.375 123.433 127.375 124.086C127.375 124.739 127.501 125.313 127.753 125.808C128.005 126.303 128.355 126.685 128.803 126.956C129.26 127.217 129.783 127.348 130.371 127.348ZM141.867 129L139.711 125.192H138.787V129H136.827V119.228H140.495C141.251 119.228 141.895 119.363 142.427 119.634C142.959 119.895 143.356 120.255 143.617 120.712C143.888 121.16 144.023 121.664 144.023 122.224C144.023 122.868 143.837 123.451 143.463 123.974C143.09 124.487 142.535 124.842 141.797 125.038L144.135 129H141.867ZM138.787 123.722H140.425C140.957 123.722 141.354 123.596 141.615 123.344C141.877 123.083 142.007 122.723 142.007 122.266C142.007 121.818 141.877 121.473 141.615 121.23C141.354 120.978 140.957 120.852 140.425 120.852H138.787V123.722ZM156.258 122.252C156.258 122.775 156.132 123.265 155.88 123.722C155.637 124.179 155.25 124.548 154.718 124.828C154.195 125.108 153.533 125.248 152.73 125.248H151.092V129H149.132V119.228H152.73C153.486 119.228 154.13 119.359 154.662 119.62C155.194 119.881 155.591 120.241 155.852 120.698C156.123 121.155 156.258 121.673 156.258 122.252ZM152.646 123.666C153.187 123.666 153.589 123.545 153.85 123.302C154.111 123.05 154.242 122.7 154.242 122.252C154.242 121.3 153.71 120.824 152.646 120.824H151.092V123.666H152.646ZM162.69 129L160.534 125.192H159.61V129H157.65V119.228H161.318C162.074 119.228 162.718 119.363 163.25 119.634C163.782 119.895 164.178 120.255 164.44 120.712C164.71 121.16 164.846 121.664 164.846 122.224C164.846 122.868 164.659 123.451 164.286 123.974C163.912 124.487 163.357 124.842 162.62 125.038L164.958 129H162.69ZM159.61 123.722H161.248C161.78 123.722 162.176 123.596 162.438 123.344C162.699 123.083 162.83 122.723 162.83 122.266C162.83 121.818 162.699 121.473 162.438 121.23C162.176 120.978 161.78 120.852 161.248 120.852H159.61V123.722ZM171.154 129.098C170.24 129.098 169.4 128.883 168.634 128.454C167.869 128.025 167.262 127.432 166.814 126.676C166.366 125.911 166.142 125.047 166.142 124.086C166.142 123.134 166.366 122.28 166.814 121.524C167.262 120.759 167.869 120.161 168.634 119.732C169.4 119.303 170.24 119.088 171.154 119.088C172.078 119.088 172.918 119.303 173.674 119.732C174.44 120.161 175.042 120.759 175.48 121.524C175.928 122.28 176.152 123.134 176.152 124.086C176.152 125.047 175.928 125.911 175.48 126.676C175.042 127.432 174.44 128.025 173.674 128.454C172.909 128.883 172.069 129.098 171.154 129.098ZM171.154 127.348C171.742 127.348 172.26 127.217 172.708 126.956C173.156 126.685 173.506 126.303 173.758 125.808C174.01 125.313 174.136 124.739 174.136 124.086C174.136 123.433 174.01 122.863 173.758 122.378C173.506 121.883 173.156 121.505 172.708 121.244C172.26 120.983 171.742 120.852 171.154 120.852C170.566 120.852 170.044 120.983 169.586 121.244C169.138 121.505 168.788 121.883 168.536 122.378C168.284 122.863 168.158 123.433 168.158 124.086C168.158 124.739 168.284 125.313 168.536 125.808C168.788 126.303 169.138 126.685 169.586 126.956C170.044 127.217 170.566 127.348 171.154 127.348ZM184.261 119.228V120.81H181.657V129H179.697V120.81H177.093V119.228H184.261ZM190.227 129.098C189.312 129.098 188.472 128.883 187.707 128.454C186.941 128.025 186.335 127.432 185.887 126.676C185.439 125.911 185.215 125.047 185.215 124.086C185.215 123.134 185.439 122.28 185.887 121.524C186.335 120.759 186.941 120.161 187.707 119.732C188.472 119.303 189.312 119.088 190.227 119.088C191.151 119.088 191.991 119.303 192.747 119.732C193.512 120.161 194.114 120.759 194.553 121.524C195.001 122.28 195.225 123.134 195.225 124.086C195.225 125.047 195.001 125.911 194.553 126.676C194.114 127.432 193.512 128.025 192.747 128.454C191.981 128.883 191.141 129.098 190.227 129.098ZM190.227 127.348C190.815 127.348 191.333 127.217 191.781 126.956C192.229 126.685 192.579 126.303 192.831 125.808C193.083 125.313 193.209 124.739 193.209 124.086C193.209 123.433 193.083 122.863 192.831 122.378C192.579 121.883 192.229 121.505 191.781 121.244C191.333 120.983 190.815 120.852 190.227 120.852C189.639 120.852 189.116 120.983 188.659 121.244C188.211 121.505 187.861 121.883 187.609 122.378C187.357 122.863 187.231 123.433 187.231 124.086C187.231 124.739 187.357 125.313 187.609 125.808C187.861 126.303 188.211 126.685 188.659 126.956C189.116 127.217 189.639 127.348 190.227 127.348ZM196.207 124.1C196.207 123.139 196.421 122.28 196.851 121.524C197.289 120.759 197.882 120.166 198.629 119.746C199.385 119.317 200.229 119.102 201.163 119.102C202.255 119.102 203.211 119.382 204.033 119.942C204.854 120.502 205.428 121.277 205.755 122.266H203.501C203.277 121.799 202.959 121.449 202.549 121.216C202.147 120.983 201.681 120.866 201.149 120.866C200.579 120.866 200.071 121.001 199.623 121.272C199.184 121.533 198.839 121.907 198.587 122.392C198.344 122.877 198.223 123.447 198.223 124.1C198.223 124.744 198.344 125.313 198.587 125.808C198.839 126.293 199.184 126.671 199.623 126.942C200.071 127.203 200.579 127.334 201.149 127.334C201.681 127.334 202.147 127.217 202.549 126.984C202.959 126.741 203.277 126.387 203.501 125.92H205.755C205.428 126.919 204.854 127.698 204.033 128.258C203.221 128.809 202.264 129.084 201.163 129.084C200.229 129.084 199.385 128.874 198.629 128.454C197.882 128.025 197.289 127.432 196.851 126.676C196.421 125.92 196.207 125.061 196.207 124.1ZM211.965 129.098C211.05 129.098 210.21 128.883 209.445 128.454C208.68 128.025 208.073 127.432 207.625 126.676C207.177 125.911 206.953 125.047 206.953 124.086C206.953 123.134 207.177 122.28 207.625 121.524C208.073 120.759 208.68 120.161 209.445 119.732C210.21 119.303 211.05 119.088 211.965 119.088C212.889 119.088 213.729 119.303 214.485 119.732C215.25 120.161 215.852 120.759 216.291 121.524C216.739 122.28 216.963 123.134 216.963 124.086C216.963 125.047 216.739 125.911 216.291 126.676C215.852 127.432 215.25 128.025 214.485 128.454C213.72 128.883 212.88 129.098 211.965 129.098ZM211.965 127.348C212.553 127.348 213.071 127.217 213.519 126.956C213.967 126.685 214.317 126.303 214.569 125.808C214.821 125.313 214.947 124.739 214.947 124.086C214.947 123.433 214.821 122.863 214.569 122.378C214.317 121.883 213.967 121.505 213.519 121.244C213.071 120.983 212.553 120.852 211.965 120.852C211.377 120.852 210.854 120.983 210.397 121.244C209.949 121.505 209.599 121.883 209.347 122.378C209.095 122.863 208.969 123.433 208.969 124.086C208.969 124.739 209.095 125.313 209.347 125.808C209.599 126.303 209.949 126.685 210.397 126.956C210.854 127.217 211.377 127.348 211.965 127.348ZM220.381 127.446H223.601V129H218.421V119.228H220.381V127.446ZM229.383 129.098C228.468 129.098 227.628 128.883 226.863 128.454C226.098 128.025 225.491 127.432 225.043 126.676C224.595 125.911 224.371 125.047 224.371 124.086C224.371 123.134 224.595 122.28 225.043 121.524C225.491 120.759 226.098 120.161 226.863 119.732C227.628 119.303 228.468 119.088 229.383 119.088C230.307 119.088 231.147 119.303 231.903 119.732C232.668 120.161 233.27 120.759 233.709 121.524C234.157 122.28 234.381 123.134 234.381 124.086C234.381 125.047 234.157 125.911 233.709 126.676C233.27 127.432 232.668 128.025 231.903 128.454C231.138 128.883 230.298 129.098 229.383 129.098ZM229.383 127.348C229.971 127.348 230.489 127.217 230.937 126.956C231.385 126.685 231.735 126.303 231.987 125.808C232.239 125.313 232.365 124.739 232.365 124.086C232.365 123.433 232.239 122.863 231.987 122.378C231.735 121.883 231.385 121.505 230.937 121.244C230.489 120.983 229.971 120.852 229.383 120.852C228.795 120.852 228.272 120.983 227.815 121.244C227.367 121.505 227.017 121.883 226.765 122.378C226.513 122.863 226.387 123.433 226.387 124.086C226.387 124.739 226.513 125.313 226.765 125.808C227.017 126.303 227.367 126.685 227.815 126.956C228.272 127.217 228.795 127.348 229.383 127.348Z" fill="white"/>
<path d="M42 80.7595C48.4019 80.7595 54.6376 79.1956 61.006 78.6477C73.811 77.5462 86.9551 78.3838 99.8098 78.3838C131.405 78.3838 163.073 77.3746 194.708 77.1959C220.248 77.0516 245.716 77.1959 271.259 77.1959C277.936 77.1959 285.164 76.2873 291.453 78.3838" stroke="#C41616" stroke-width="3" stroke-linecap="round"/>
<path d="M67.56 1.6C68.32 1.99999 68.7 2.6 68.7 3.4C68.7 4.16 68.16 5.06 67.08 6.1C66 7.14 63.86 8.52 60.66 10.24C60.38 10.4 60.08 10.44 59.76 10.36C59.48 10.24 59.26 10.04 59.1 9.76C58.94 9.48 58.9 9.2 58.98 8.92C59.1 8.6 59.3 8.36 59.58 8.2C63.34 6.16 65.58 4.62 66.3 3.57999C65.3 3.18 62.72 3.3 58.56 3.94C54.44 4.54 49.26 5.8 43.02 7.72C40.82 8.4 38.56 9.14 36.24 9.94C35.36 14.06 33.68 21.84 31.2 33.28C29.2 42.44 27.68 49.48 26.64 54.4C31.48 53 35.96 52.34 40.08 52.42C40.4 52.42 40.66 52.54 40.86 52.78C41.1 53.02 41.22 53.3 41.22 53.62C41.22 53.94 41.1 54.22 40.86 54.46C40.62 54.66 40.34 54.76 40.02 54.76C35.74 54.68 31.1 55.42 26.1 56.98C22.02 76.06 19.68 88.28 19.08 93.64C19.16 93.44 19.24 93.26 19.32 93.1C19.44 92.78 19.64 92.56 19.92 92.44C20.24 92.32 20.54 92.32 20.82 92.44C21.14 92.56 21.36 92.76 21.48 93.04C21.6 93.36 21.6 93.66 21.48 93.94C20.76 95.62 20.16 96.8 19.68 97.48C19.24 98.2 18.76 98.56 18.24 98.56C18.08 98.56 17.92 98.52 17.76 98.44C17.16 98.24 16.8 97.68 16.68 96.76C16.6 95.84 16.76 93.88 17.16 90.88C17.68 87.28 18.6 82.08 19.92 75.28C20.88 70.48 22.08 64.66 23.52 57.82C17.68 59.98 12.44 62.98 7.8 66.82C7.6 66.98 7.36 67.06 7.08 67.06C6.72 67.06 6.42 66.92 6.18 66.64C5.98 66.4 5.9 66.12 5.94 65.8C5.98 65.48 6.12 65.22 6.36 65.02C11.56 60.7 17.48 57.42 24.12 55.18C25.16 50.18 26.76 42.7 28.92 32.74C31.24 22.1 32.82 14.8 33.66 10.84C22.18 15.04 12.56 19.74 4.8 24.94C4.6 25.06 4.38 25.12 4.14 25.12C3.74 25.12 3.42 24.96 3.18 24.64C3.02 24.36 2.96 24.08 3 23.8C3.08 23.48 3.26 23.22 3.54 23.02C11.74 17.5 21.96 12.56 34.2 8.2C34.52 6.68 34.78 5.36 34.98 4.24C35.06 3.92 35.22 3.68 35.46 3.52C35.74 3.32 36.04 3.26 36.36 3.34C36.68 3.38 36.92 3.54 37.08 3.82C37.28 4.06 37.34 4.34 37.26 4.66C37.1 5.46 36.94 6.34 36.78 7.3C38.46 6.74 40.08 6.22 41.64 5.74C45.2 4.62 48.64 3.68 51.96 2.92C55.28 2.12 58.46 1.53999 61.5 1.18C64.54 0.819999 66.56 0.959999 67.56 1.6ZM66.1992 50.44C66.5192 50.36 66.7992 50.42 67.0392 50.62C67.3192 50.78 67.4792 51.02 67.5192 51.34C67.5592 51.66 67.4992 51.94 67.3392 52.18C62.8192 58.5 58.6992 62.98 54.9792 65.62C53.4992 66.66 52.0392 67.18 50.5992 67.18C49.4792 67.18 48.4992 66.88 47.6592 66.28C47.1792 65.92 46.7592 65.44 46.3992 64.84C45.9992 64.24 45.6592 63.4 45.3792 62.32C45.0992 61.24 45.0592 59.82 45.2592 58.06C45.4192 56.3 45.8592 54.3 46.5792 52.06V52C47.6992 48.36 49.0592 45.48 50.6592 43.36C52.2592 41.24 53.6992 40.16 54.9792 40.12C55.8992 40.08 56.4992 40.48 56.7792 41.32C57.2192 42.48 56.6992 44.12 55.2192 46.24C53.7392 48.36 51.5592 50.64 48.6792 53.08C48.1992 54.64 47.8592 56.08 47.6592 57.4C47.4592 58.72 47.3792 59.78 47.4192 60.58C47.4992 61.34 47.6392 62.02 47.8392 62.62C48.0792 63.18 48.2792 63.58 48.4392 63.82C48.6392 64.06 48.8392 64.26 49.0392 64.42C50.2392 65.3 51.7792 65.06 53.6592 63.7C57.1792 61.22 61.0992 56.94 65.4192 50.86C65.6192 50.62 65.8792 50.48 66.1992 50.44ZM54.5592 42.64C53.1592 43.52 51.7792 45.42 50.4192 48.34C52.7392 46.02 54.1192 44.12 54.5592 42.64ZM81.8602 7.78C82.7002 9.02 82.2802 11.96 80.6002 16.6C78.9602 21.2 76.2802 26.46 72.5602 32.38C72.5202 32.42 72.4802 32.46 72.4402 32.5C69.9202 42.58 67.5002 53.08 65.1802 64C62.9002 74.96 61.4402 82.76 60.8002 87.4C60.8402 87.4 60.8802 87.4 60.9202 87.4C61.2402 87.52 61.4802 87.72 61.6402 88C61.7602 88.28 61.7602 88.58 61.6402 88.9C61.4002 89.58 61.2202 90.08 61.1002 90.4C60.9402 90.76 60.7202 91.1 60.4402 91.42C60.1602 91.74 59.8602 91.9 59.5402 91.9C59.4202 91.9 59.2802 91.88 59.1202 91.84C58.5602 91.64 58.2602 91.08 58.2202 90.16C58.1802 89.28 58.4602 87.08 59.0602 83.56C59.7802 79.24 60.8602 73.6 62.3002 66.64C65.6202 50.8 68.9202 36.68 72.2002 24.28C72.4802 23.24 72.7802 22.16 73.1002 21.04C73.4202 19.88 73.8802 18.44 74.4802 16.72C75.0802 15 75.6602 13.5 76.2202 12.22C76.8202 10.9 77.4802 9.74 78.2002 8.74C78.9202 7.7 79.6002 7.14 80.2402 7.06C80.9202 6.94 81.4602 7.18 81.8602 7.78ZM74.5402 24.46C77.7402 18.42 79.5402 13.68 79.9402 10.24C78.1802 12.88 76.3802 17.62 74.5402 24.46ZM90.0408 50.2C90.3608 50.12 90.6608 50.16 90.9408 50.32C91.2208 50.48 91.3808 50.72 91.4208 51.04C91.5008 51.36 91.4608 51.66 91.3008 51.94C90.1808 53.7 88.8208 55.54 87.2208 57.46C85.6608 59.34 83.8808 61.04 81.8808 62.56C79.9208 64.08 78.2608 64.84 76.9008 64.84C76.4208 64.84 76.0008 64.76 75.6408 64.6C72.9608 63.44 72.6808 58.74 74.8008 50.5C74.8808 50.18 75.0608 49.94 75.3408 49.78C75.6208 49.62 75.9008 49.58 76.1808 49.66C76.5008 49.74 76.7408 49.92 76.9008 50.2C77.0608 50.48 77.1008 50.76 77.0208 51.04C76.5408 52.96 76.1808 54.66 75.9408 56.14C75.7408 57.58 75.6408 58.68 75.6408 59.44C75.6808 60.2 75.7608 60.84 75.8808 61.36C76.0408 61.84 76.1608 62.14 76.2408 62.26C76.3608 62.34 76.4608 62.4 76.5408 62.44C77.5808 62.88 79.4608 61.84 82.1808 59.32C84.9408 56.8 87.3208 53.92 89.3208 50.68C89.5208 50.44 89.7608 50.28 90.0408 50.2ZM76.7808 45.52C75.6208 45.44 75.2608 44.96 75.7008 44.08C76.1008 43.36 76.6208 42.88 77.2608 42.64C78.2608 42.32 78.8608 42.58 79.0608 43.42C79.2608 44.22 78.9608 44.82 78.1608 45.22C77.7608 45.42 77.3008 45.52 76.7808 45.52ZM101.377 41.74C102.577 42.1 103.377 43.06 103.777 44.62C104.177 46.14 104.117 47.92 103.597 49.96C102.637 53.48 100.277 56.74 96.5166 59.74C94.9566 61.02 93.2366 62.14 91.3566 63.1C89.9166 68.98 88.3166 76.28 86.5566 85C84.7566 93.76 83.4366 100.68 82.5966 105.76C82.4766 106.4 82.0966 106.72 81.4566 106.72C81.3766 106.72 81.3166 106.72 81.2766 106.72C81.0766 106.68 80.8966 106.6 80.7366 106.48C80.5766 106.36 80.4566 106.2 80.3766 106C80.2966 105.8 80.2766 105.6 80.3166 105.4C81.3566 98.4 83.6566 84.88 87.2166 64.84C86.7366 65 86.2566 65.14 85.7766 65.26C85.4566 65.38 85.1566 65.36 84.8766 65.2C84.5966 65.04 84.4166 64.8 84.3366 64.48C84.2566 64.16 84.2966 63.86 84.4566 63.58C84.6166 63.3 84.8566 63.12 85.1766 63.04C85.9766 62.84 86.7966 62.56 87.6366 62.2C87.9166 60.8 88.2966 58.72 88.7766 55.96C90.8566 44.28 91.9166 38.18 91.9566 37.66C91.9566 37.34 92.0566 37.08 92.2566 36.88C92.4966 36.64 92.7566 36.52 93.0366 36.52C93.3566 36.48 93.6366 36.58 93.8766 36.82C94.1166 37.02 94.2566 37.28 94.2966 37.6C94.2966 37.92 93.3566 43.36 91.4766 53.92C92.0766 52.24 92.6766 50.72 93.2766 49.36C93.9166 48 94.4966 46.88 95.0166 46C95.5766 45.12 96.1366 44.38 96.6966 43.78C97.2566 43.18 97.7566 42.74 98.1966 42.46C98.6366 42.14 99.0566 41.92 99.4566 41.8C99.8966 41.64 100.257 41.58 100.537 41.62C100.857 41.62 101.137 41.66 101.377 41.74ZM101.377 49.36C101.737 47.8 101.817 46.54 101.617 45.58C101.457 44.62 101.157 44.08 100.717 43.96C100.677 43.92 100.617 43.9 100.537 43.9C100.297 43.9 100.017 44 99.6966 44.2C99.4166 44.36 99.0366 44.7 98.5566 45.22C98.0766 45.7 97.5766 46.34 97.0566 47.14C96.5766 47.9 96.0166 48.96 95.3766 50.32C94.7766 51.68 94.1766 53.24 93.5766 55C93.1766 56.2 92.6966 57.88 92.1366 60.04C94.4166 58.64 96.3766 57.02 98.0166 55.18C99.6966 53.34 100.817 51.4 101.377 49.36ZM126.082 50.44C126.402 50.36 126.682 50.42 126.922 50.62C127.202 50.78 127.362 51.02 127.402 51.34C127.442 51.66 127.382 51.94 127.222 52.18C122.702 58.5 118.582 62.98 114.862 65.62C113.382 66.66 111.922 67.18 110.482 67.18C109.362 67.18 108.382 66.88 107.542 66.28C107.062 65.92 106.642 65.44 106.282 64.84C105.882 64.24 105.542 63.4 105.262 62.32C104.982 61.24 104.942 59.82 105.142 58.06C105.302 56.3 105.742 54.3 106.462 52.06V52C107.582 48.36 108.942 45.48 110.542 43.36C112.142 41.24 113.582 40.16 114.862 40.12C115.782 40.08 116.382 40.48 116.662 41.32C117.102 42.48 116.582 44.12 115.102 46.24C113.622 48.36 111.442 50.64 108.562 53.08C108.082 54.64 107.742 56.08 107.542 57.4C107.342 58.72 107.262 59.78 107.302 60.58C107.382 61.34 107.522 62.02 107.722 62.62C107.962 63.18 108.162 63.58 108.322 63.82C108.522 64.06 108.722 64.26 108.922 64.42C110.122 65.3 111.662 65.06 113.542 63.7C117.062 61.22 120.982 56.94 125.302 50.86C125.502 50.62 125.762 50.48 126.082 50.44ZM114.442 42.64C113.042 43.52 111.662 45.42 110.302 48.34C112.622 46.02 114.002 44.12 114.442 42.64ZM188.881 6.28C189.761 6.8 190.561 7.42 191.281 8.14C192.041 8.86 192.781 9.82 193.501 11.02C194.221 12.18 194.761 13.52 195.121 15.04C195.481 16.52 195.741 18.32 195.901 20.44C196.061 22.52 195.921 24.82 195.481 27.34C194.361 34.94 192.241 42.36 189.121 49.6C186.041 56.84 182.141 63.46 177.421 69.46C173.421 74.5 169.301 78.52 165.061 81.52C160.861 84.56 157.221 86.08 154.141 86.08C154.101 86.08 154.061 86.08 154.021 86.08C153.501 86.08 153.001 86.02 152.521 85.9C151.961 89.26 151.601 91.86 151.441 93.7C151.521 93.5 151.601 93.3 151.681 93.1C151.801 92.78 152.001 92.56 152.281 92.44C152.601 92.32 152.901 92.32 153.181 92.44C153.501 92.56 153.721 92.76 153.841 93.04C153.961 93.36 153.961 93.66 153.841 93.94C153.161 95.62 152.581 96.8 152.101 97.48C151.661 98.2 151.161 98.56 150.601 98.56C150.481 98.56 150.341 98.52 150.181 98.44C149.741 98.32 149.421 98 149.221 97.48C149.061 97 149.041 95.76 149.161 93.76C149.321 91.76 149.721 88.84 150.361 85C148.721 83.88 147.761 82.04 147.481 79.48C147.441 79.28 147.461 79.08 147.541 78.88C147.621 78.68 147.741 78.52 147.901 78.4C148.101 78.28 148.301 78.2 148.501 78.16C148.661 78.16 148.801 78.18 148.921 78.22C149.081 78.26 149.221 78.32 149.341 78.4C149.461 78.52 149.561 78.64 149.641 78.76C149.721 78.88 149.761 79.02 149.761 79.18C149.921 80.5 150.261 81.52 150.781 82.24C152.381 72.96 155.601 56.48 160.441 32.8C162.521 22.52 163.941 15.46 164.701 11.62C164.061 12.02 163.461 12.42 162.901 12.82C161.021 14.18 159.261 15.7 157.621 17.38C155.981 19.02 154.421 20.92 152.941 23.08C151.501 25.2 150.361 27.44 149.521 29.8C148.681 32.12 148.121 34.64 147.841 37.36C147.561 40.04 147.761 42.78 148.441 45.58C148.481 45.9 148.421 46.2 148.261 46.48C148.101 46.72 147.861 46.88 147.541 46.96C147.221 47 146.921 46.94 146.641 46.78C146.401 46.62 146.241 46.38 146.161 46.06C145.441 43.06 145.221 40.12 145.501 37.24C145.821 34.32 146.421 31.6 147.301 29.08C148.221 26.56 149.441 24.16 150.961 21.88C152.521 19.6 154.161 17.58 155.881 15.82C157.641 14.02 159.521 12.4 161.521 10.96C162.761 10.08 164.001 9.28 165.241 8.56C165.561 6.88 165.841 5.44 166.081 4.24C166.121 3.92 166.261 3.68 166.501 3.52C166.781 3.32 167.081 3.26 167.401 3.34C167.721 3.38 167.961 3.54 168.121 3.82C168.321 4.06 168.401 4.34 168.361 4.66C168.201 5.38 168.041 6.24 167.881 7.24C171.801 5.36 175.601 4.34 179.281 4.18C183.001 3.98 186.201 4.67999 188.881 6.28ZM193.201 27.04C193.841 22.36 193.701 18.44 192.781 15.28C191.861 12.08 190.161 9.72 187.681 8.2C185.161 6.72 182.101 6.16 178.501 6.52C174.901 6.84 171.181 8.02 167.341 10.06C166.541 14.14 164.981 21.88 162.661 33.28C157.661 57.84 154.401 74.62 152.881 83.62C153.241 83.7 153.621 83.76 154.021 83.8C154.061 83.8 154.101 83.8 154.141 83.8C156.621 83.8 159.801 82.44 163.681 79.72C167.601 77.04 171.561 73.14 175.561 68.02C177.161 66.02 178.721 63.82 180.241 61.42C181.761 59.02 183.421 56.08 185.221 52.6C187.021 49.12 188.621 45.16 190.021 40.72C191.461 36.28 192.521 31.72 193.201 27.04ZM214.417 50.68C214.737 50.64 215.017 50.72 215.257 50.92C215.537 51.12 215.697 51.38 215.737 51.7C215.777 52.02 215.697 52.3 215.497 52.54C213.857 54.66 211.897 56.32 209.617 57.52C207.337 58.72 205.197 59.1 203.197 58.66C202.637 60.02 201.857 61.1 200.857 61.9C199.857 62.66 198.817 63.04 197.737 63.04H197.677C196.597 63 195.637 62.64 194.797 61.96C193.997 61.24 193.437 60.26 193.117 59.02C192.597 57.06 192.697 55.2 193.417 53.44C194.097 51.64 195.097 50.32 196.417 49.48C196.697 49.28 197.017 49.24 197.377 49.36C197.737 48.48 198.237 47.8 198.877 47.32C199.557 46.84 200.257 46.66 200.977 46.78C201.377 46.86 201.737 47.04 202.057 47.32C202.417 47.56 202.757 47.96 203.077 48.52C203.437 49.08 203.697 49.94 203.857 51.1C204.017 52.26 204.057 53.64 203.977 55.24C203.937 55.64 203.877 56.04 203.797 56.44C205.317 56.76 206.997 56.38 208.837 55.3C210.717 54.22 212.317 52.82 213.637 51.1C213.837 50.86 214.097 50.72 214.417 50.68ZM197.737 60.7C198.297 60.7 198.877 60.44 199.477 59.92C200.117 59.4 200.637 58.7 201.037 57.82C198.437 56.38 197.077 54.42 196.957 51.94C196.157 52.7 195.597 53.72 195.277 55C194.997 56.28 195.017 57.4 195.337 58.36C195.777 59.92 196.577 60.7 197.737 60.7ZM201.637 55.12C201.717 54.16 201.717 53.34 201.637 52.66C201.597 51.94 201.537 51.36 201.457 50.92C201.377 50.48 201.277 50.12 201.157 49.84C201.037 49.56 200.917 49.36 200.797 49.24C200.717 49.12 200.657 49.06 200.617 49.06H200.557C200.397 49.06 200.197 49.2 199.957 49.48C199.717 49.72 199.537 50.06 199.417 50.5C199.177 51.34 199.217 52.2 199.537 53.08C199.857 53.96 200.557 54.76 201.637 55.48C201.637 55.36 201.637 55.24 201.637 55.12ZM235.795 50.92C236.115 50.84 236.395 50.88 236.635 51.04C236.915 51.2 237.095 51.44 237.175 51.76C237.255 52.08 237.215 52.36 237.055 52.6C236.575 53.36 236.055 54.18 235.495 55.06C234.935 55.9 234.095 57.06 232.975 58.54C231.895 60.02 230.855 61.32 229.855 62.44C228.855 63.52 227.775 64.48 226.615 65.32C225.455 66.16 224.455 66.58 223.615 66.58C223.295 66.58 223.015 66.52 222.775 66.4C220.855 65.68 220.315 62.62 221.155 57.22C219.835 59.02 218.635 60.38 217.555 61.3C215.995 62.62 214.635 62.78 213.475 61.78C212.395 60.9 211.915 59.34 212.035 57.1C212.115 54.86 212.755 52.7 213.955 50.62C214.115 50.34 214.355 50.16 214.675 50.08C214.995 50 215.295 50.04 215.575 50.2C215.855 50.36 216.035 50.6 216.115 50.92C216.195 51.2 216.155 51.48 215.995 51.76C215.315 52.88 214.835 54.06 214.555 55.3C214.315 56.54 214.235 57.58 214.315 58.42C214.435 59.22 214.635 59.74 214.915 59.98C215.115 60.18 215.495 60.04 216.055 59.56C217.095 58.68 218.395 57.1 219.955 54.82C220.235 54.46 220.435 54.2 220.555 54.04C220.715 53.84 220.895 53.62 221.095 53.38C221.295 53.1 221.455 52.92 221.575 52.84C221.695 52.76 221.835 52.68 221.995 52.6C222.155 52.48 222.315 52.44 222.475 52.48C222.635 52.48 222.815 52.52 223.015 52.6C223.535 52.8 223.815 53.26 223.855 53.98C223.895 54.66 223.795 55.56 223.555 56.68C223.115 58.88 222.935 60.56 223.015 61.72C223.135 62.88 223.235 63.6 223.315 63.88C223.395 64.12 223.495 64.24 223.615 64.24C223.735 64.32 223.935 64.28 224.215 64.12C224.535 64 224.895 63.78 225.295 63.46C225.735 63.14 226.215 62.74 226.735 62.26C227.255 61.74 227.835 61.12 228.475 60.4C229.155 59.68 229.835 58.9 230.515 58.06C231.195 57.18 231.935 56.18 232.735 55.06C233.535 53.9 234.315 52.68 235.075 51.4C235.235 51.12 235.475 50.96 235.795 50.92ZM259.348 50.38C259.668 50.26 259.968 50.28 260.248 50.44C260.528 50.56 260.728 50.78 260.848 51.1C260.968 51.38 260.948 51.66 260.788 51.94C259.708 54.26 258.488 56.64 257.128 59.08C255.768 61.52 254.268 63.98 252.628 66.46C251.028 68.98 249.428 71.02 247.828 72.58C246.228 74.18 244.868 74.98 243.748 74.98C243.468 74.98 243.208 74.92 242.968 74.8C241.328 74.16 240.808 71.68 241.408 67.36C241.968 63.32 243.448 57.6 245.848 50.2C245.808 50.2 245.768 50.22 245.728 50.26C245.728 50.26 245.708 50.26 245.668 50.26C244.788 50.86 244.048 51.32 243.448 51.64C242.888 51.96 242.108 52.32 241.108 52.72C240.148 53.12 239.228 53.3 238.348 53.26C237.468 53.22 236.648 52.94 235.888 52.42C234.368 51.34 233.588 49.84 233.548 47.92C233.508 46 234.228 43.9 235.708 41.62C236.628 40.18 237.728 38.92 239.008 37.84C240.328 36.76 241.448 36.52 242.368 37.12C242.928 37.44 243.248 37.96 243.328 38.68C243.448 39.4 243.108 40.8 242.308 42.88C241.508 44.92 240.168 47.6 238.288 50.92C239.528 51.08 241.568 50.22 244.408 48.34C244.928 47.98 245.308 47.74 245.548 47.62C245.828 47.46 246.128 47.3 246.448 47.14C246.808 46.98 247.108 46.92 247.348 46.96C247.588 47 247.828 47.1 248.068 47.26C248.668 47.74 248.768 48.58 248.368 49.78C244.368 62.18 242.788 69.7 243.628 72.34C243.708 72.5 243.768 72.62 243.808 72.7C244.128 72.74 244.608 72.48 245.248 71.92C245.928 71.36 246.748 70.48 247.708 69.28C248.708 68.08 249.768 66.64 250.888 64.96C252.048 63.28 253.308 61.22 254.668 58.78C256.068 56.34 257.408 53.74 258.688 50.98C258.848 50.66 259.068 50.46 259.348 50.38ZM236.068 46.3C235.708 47.7 235.788 48.82 236.308 49.66C239.228 44.58 240.788 41.14 240.988 39.34C240.508 39.62 239.948 40.08 239.308 40.72C238.708 41.36 238.068 42.2 237.388 43.24C236.748 44.24 236.308 45.26 236.068 46.3ZM282.113 50.62C282.433 50.5 282.733 50.52 283.013 50.68C283.293 50.8 283.473 51.02 283.553 51.34C283.673 51.62 283.673 51.9 283.553 52.18C279.273 61.02 275.453 65.44 272.093 65.44C271.893 65.44 271.673 65.42 271.433 65.38C268.753 64.86 267.093 61.26 266.453 54.58C264.493 57.22 262.753 59.38 261.233 61.06C259.873 62.5 258.713 63 257.752 62.56C256.792 62.2 256.332 61.16 256.372 59.44C256.372 58 256.692 56.28 257.332 54.28C257.973 52.28 258.913 50.34 260.153 48.46C261.393 46.58 262.733 45.4 264.173 44.92C266.293 44.16 268.253 44.86 270.053 47.02C270.253 47.26 270.333 47.54 270.293 47.86C270.293 48.18 270.173 48.44 269.933 48.64C269.693 48.84 269.413 48.94 269.093 48.94C268.773 48.9 268.513 48.76 268.313 48.52C266.913 46.84 265.493 46.52 264.053 47.56C262.413 48.72 261.033 50.82 259.913 53.86C258.833 56.86 258.413 59 258.653 60.28C258.893 60.08 259.173 59.82 259.493 59.5C261.093 57.78 263.053 55.32 265.373 52.12C265.893 51.4 266.253 50.9 266.453 50.62C266.773 50.22 267.193 50.1 267.713 50.26C268.233 50.38 268.513 50.72 268.553 51.28C268.633 53.24 268.793 54.98 269.033 56.5C269.273 58.02 269.513 59.18 269.753 59.98C269.993 60.74 270.273 61.38 270.593 61.9C270.913 62.42 271.153 62.76 271.313 62.92C271.513 63.04 271.713 63.1 271.913 63.1C272.473 63.22 273.173 62.96 274.013 62.32C274.893 61.64 275.993 60.36 277.313 58.48C278.673 56.56 280.053 54.14 281.453 51.22C281.613 50.9 281.833 50.7 282.113 50.62ZM306.168 13.9C307.208 14.94 306.688 18.62 304.608 24.94C304.448 25.42 304.228 26.08 303.948 26.92C303.068 29.6 302.348 31.74 301.788 33.34C301.228 34.94 300.348 37.18 299.148 40.06C297.948 42.94 296.648 45.7 295.248 48.34C294.088 53.86 292.988 59.74 291.948 65.98C290.148 76.66 289.188 83.9 289.068 87.7C289.388 87.58 289.708 87.58 290.028 87.7C290.308 87.86 290.488 88.08 290.568 88.36C290.688 88.68 290.688 88.98 290.568 89.26C289.848 90.78 289.128 91.54 288.408 91.54C288.248 91.54 288.088 91.52 287.928 91.48C287.488 91.32 287.168 91.02 286.968 90.58C286.808 90.18 286.728 89.3 286.728 87.94C286.768 86.62 286.948 84.66 287.268 82.06C287.748 77.9 288.548 72.42 289.668 65.62C290.308 61.9 290.968 58.28 291.648 54.76C290.408 56.76 289.088 58.76 287.688 60.76C285.048 64.6 282.748 65.98 280.788 64.9C279.508 63.98 278.888 62.36 278.928 60.04C278.968 57.68 279.548 55.3 280.668 52.9C281.988 50.1 283.548 48.04 285.348 46.72C287.148 45.4 288.748 44.96 290.148 45.4C291.548 45.8 292.348 46.84 292.548 48.52C292.748 48.2 292.928 47.88 293.088 47.56C295.208 37.52 297.328 29.46 299.448 23.38C301.608 17.26 303.368 13.98 304.728 13.54C305.288 13.34 305.768 13.46 306.168 13.9ZM285.828 59.44C287.708 56.72 289.428 54 290.988 51.28C290.388 51.08 290.148 50.68 290.268 50.08C290.428 48.6 290.168 47.76 289.488 47.56C289.408 47.56 289.288 47.56 289.128 47.56C288.288 47.56 287.248 48.12 286.008 49.24C284.808 50.32 283.728 51.88 282.768 53.92C282.128 55.24 281.688 56.6 281.448 58C281.248 59.36 281.208 60.48 281.328 61.36C281.448 62.2 281.668 62.7 281.988 62.86C282.108 62.94 282.288 62.94 282.528 62.86C282.808 62.74 283.248 62.4 283.848 61.84C284.448 61.24 285.108 60.44 285.828 59.44ZM302.388 24.22C303.188 21.78 303.768 19.7 304.128 17.98C302.168 22.1 300.068 28.52 297.828 37.24C298.948 34.52 300.248 30.86 301.728 26.26C302.008 25.38 302.228 24.7 302.388 24.22ZM320.237 50.68C320.557 50.64 320.837 50.72 321.077 50.92C321.357 51.12 321.517 51.38 321.557 51.7C321.597 52.02 321.517 52.3 321.317 52.54C319.677 54.66 317.717 56.32 315.437 57.52C313.157 58.72 311.017 59.1 309.017 58.66C308.457 60.02 307.677 61.1 306.677 61.9C305.677 62.66 304.637 63.04 303.557 63.04H303.497C302.417 63 301.457 62.64 300.617 61.96C299.817 61.24 299.257 60.26 298.937 59.02C298.417 57.06 298.517 55.2 299.237 53.44C299.917 51.64 300.917 50.32 302.237 49.48C302.517 49.28 302.837 49.24 303.197 49.36C303.557 48.48 304.057 47.8 304.697 47.32C305.377 46.84 306.077 46.66 306.797 46.78C307.197 46.86 307.557 47.04 307.877 47.32C308.237 47.56 308.577 47.96 308.897 48.52C309.257 49.08 309.517 49.94 309.677 51.1C309.837 52.26 309.877 53.64 309.797 55.24C309.757 55.64 309.697 56.04 309.617 56.44C311.137 56.76 312.817 56.38 314.657 55.3C316.537 54.22 318.137 52.82 319.457 51.1C319.657 50.86 319.917 50.72 320.237 50.68ZM303.557 60.7C304.117 60.7 304.697 60.44 305.297 59.92C305.937 59.4 306.457 58.7 306.857 57.82C304.257 56.38 302.897 54.42 302.777 51.94C301.977 52.7 301.417 53.72 301.097 55C300.817 56.28 300.837 57.4 301.157 58.36C301.597 59.92 302.397 60.7 303.557 60.7ZM307.457 55.12C307.537 54.16 307.537 53.34 307.457 52.66C307.417 51.94 307.357 51.36 307.277 50.92C307.197 50.48 307.097 50.12 306.977 49.84C306.857 49.56 306.737 49.36 306.617 49.24C306.537 49.12 306.477 49.06 306.437 49.06H306.377C306.217 49.06 306.017 49.2 305.777 49.48C305.537 49.72 305.357 50.06 305.237 50.5C304.997 51.34 305.037 52.2 305.357 53.08C305.677 53.96 306.377 54.76 307.457 55.48C307.457 55.36 307.457 55.24 307.457 55.12Z" fill="#F5F5F5"/>
</svg>
